<?xml version="1.0" encoding="UTF-8" standalone="no"?>
<svg
   version="1.1"
   style="text-align:center"
   id="svg89"
   sodipodi:docname="AWG-Modecenter Logo 03.2021.svg"
   width="400"
   height="152.46948"
   inkscape:version="1.1.1 (3bf5ae0d25, 2021-09-20)"
   xmlns:inkscape="http://www.inkscape.org/namespaces/inkscape"
   xmlns:sodipodi="http://sodipodi.sourceforge.net/DTD/sodipodi-0.dtd"
   xmlns="http://www.w3.org/2000/svg"
   xmlns:svg="http://www.w3.org/2000/svg">
  <sodipodi:namedview
     id="namedview91"
     pagecolor="#ffffff"
     bordercolor="#111111"
     borderopacity="1"
     inkscape:pageshadow="0"
     inkscape:pageopacity="0"
     inkscape:pagecheckerboard="1"
     showgrid="false"
     inkscape:zoom="3.4675"
     inkscape:cx="200"
     inkscape:cy="76.27974"
     inkscape:window-width="1600"
     inkscape:window-height="837"
     inkscape:window-x="-8"
     inkscape:window-y="-8"
     inkscape:window-maximized="1"
     inkscape:current-layer="svg89" />
  <defs
     style="text-align:center"
     id="defs61" />
  <view
     id="view-symbol-arrow-cta"
     viewBox="0 0 64.29 50"
     style="block-size:auto;height:auto;inline-size:auto;overflow-x:visible;overflow-y:visible;perspective-origin:50% 50%;text-align:center;transform-origin:0px 0px;width:auto;" />
  <view
     id="view-symbol-cart"
     viewBox="100 0 47.83 50"
     style="block-size:auto;height:auto;inline-size:auto;overflow-x:visible;overflow-y:visible;perspective-origin:50% 50%;text-align:center;transform-origin:0px 0px;width:auto;" />
  <view
     id="view-symbol-delivery"
     viewBox="150 0 50 50"
     style="block-size:auto;height:auto;inline-size:auto;overflow-x:visible;overflow-y:visible;perspective-origin:50% 50%;text-align:center;transform-origin:0px 0px;width:auto;" />
  <view
     id="view-symbol-location"
     viewBox="200 0 41.67 50"
     style="block-size:auto;height:auto;inline-size:auto;overflow-x:visible;overflow-y:visible;perspective-origin:50% 50%;text-align:center;transform-origin:0px 0px;width:auto;" />
  <view
     id="view-symbol-login"
     viewBox="250 0 46 50"
     style="block-size:auto;height:auto;inline-size:auto;overflow-x:visible;overflow-y:visible;perspective-origin:50% 50%;text-align:center;transform-origin:0px 0px;width:auto;" />
  <view
     id="view-symbol-logo-50"
     viewBox="300 0 182.99 50"
     style="block-size:auto;height:auto;inline-size:auto;overflow-x:visible;overflow-y:visible;perspective-origin:50% 50%;text-align:center;transform-origin:0px 0px;width:auto;" />
  <view
     id="view-symbol-logo"
     viewBox="500 0 131.19 50"
     style="block-size:auto;height:auto;inline-size:auto;overflow-x:visible;overflow-y:visible;perspective-origin:50% 50%;text-align:center;transform-origin:0px 0px;width:auto;" />
  <view
     id="view-symbol-navigation"
     viewBox="650 0 50 50"
     style="block-size:auto;height:auto;inline-size:auto;overflow-x:visible;overflow-y:visible;perspective-origin:50% 50%;text-align:center;transform-origin:0px 0px;width:auto;" />
  <view
     id="view-symbol-product"
     viewBox="700 0 50 50"
     style="block-size:auto;height:auto;inline-size:auto;overflow-x:visible;overflow-y:visible;perspective-origin:50% 50%;text-align:center;transform-origin:0px 0px;width:auto;" />
  <view
     id="view-symbol-retoure"
     viewBox="750 0 50 50"
     style="block-size:auto;height:auto;inline-size:auto;overflow-x:visible;overflow-y:visible;perspective-origin:50% 50%;text-align:center;transform-origin:0px 0px;width:auto;" />
  <view
     id="view-symbol-search"
     viewBox="800 0 50 50"
     style="block-size:auto;height:auto;inline-size:auto;overflow-x:visible;overflow-y:visible;perspective-origin:50% 50%;text-align:center;transform-origin:0px 0px;width:auto;" />
  <view
     id="view-symbol-security"
     viewBox="850 0 50 50"
     style="block-size:auto;height:auto;inline-size:auto;overflow-x:visible;overflow-y:visible;perspective-origin:50% 50%;text-align:center;transform-origin:0px 0px;width:auto;" />
  <view
     id="view-symbol-wishlist"
     viewBox="900 0 50 50"
     style="block-size:auto;height:auto;inline-size:auto;overflow-x:visible;overflow-y:visible;perspective-origin:50% 50%;text-align:center;transform-origin:0px 0px;width:auto;" />
  <path
     d="m 355.01217,60.078139 c -1.31727,0 -7.99784,-0.117614 -9.47977,-0.117614 -1.48197,0 -1.67014,-0.415572 -1.44275,-1.364336 0.22748,-0.948764 1.51331,-2.352309 2.50128,-3.293231 0.98796,-0.940924 1.94455,-0.05489 2.65027,0.486144 a 55.490936,55.490936 0 0 0 5.59847,3.057998 c 1.67798,0.784104 1.4898,1.199676 0.17259,1.231042 M 395.78561,32.030795 C 392.64911,27.969139 383.37316,20.394709 372.06641,12.773233 363.49617,6.994397 350.81724,4.5636794 337.60512,5.8888126 A 57.890291,57.890291 0 0 0 307.86411,17.564099 l -0.10978,0.07841 C 302.31266,13.173125 289.71997,2.5877409 281.25951,0.62748458 269.80377,-2.0463051 261.10805,4.4068589 258.37154,9.0252226 A 23.742625,23.742625 0 0 0 254.9058,23.280206 c -7.35487,-5.402466 -11.76153,-9.299456 -17.48548,-10.977435 -3.06584,-0.9174 -10.58538,-1.740708 -18.44993,7.895912 0,0 -4.81439,-3.050158 -11.32242,-8.217394 -2.92472,-2.3366252 -8.10765,-5.7082661 -10.67949,-6.8608969 A 15.321364,15.321364 0 0 0 185.99103,4.6342486 28.486445,28.486445 0 0 0 168.83488,19.171509 C 161.43295,13.941545 154.45443,5.6378997 144.03371,4.2735613 132.51524,2.7602435 125.02708,12.459592 119.54619,19.547878 c -11.98892,15.98785 -34.727889,46.19148 -44.780099,59.160535 -2.54049,3.261868 -4.25766,5.441673 -4.79871,6.014069 l -0.60374,0.635123 c -0.59594,0.635121 -1.5682,0.980127 -4.06951,-2.767884 a 55.323922,55.323922 0 0 0 -2.59536,-3.544142 c -13.416,-16.756271 -28.33747,-13.964867 -36.58624,-12.357457 -6.43748,1.199676 -13.84725,6.743284 -19.0066303,13.980548 -0.78412,1.089905 -1.50548,2.234692 -2.17982,3.403005 -5.35540003,9.362184 -6.38259,19.829955 -2.89334,29.497945 3.92052,10.90686 11.0245003,17.97163 19.6025703,23.93865 6.58647,4.56347 23.72694,18.59891 42.68655,14.07464 23.02123,-5.48872 38.977719,-23.86808 45.948409,-36.50782 1.43488,-2.59537 3.08935,-4.00676 8.35852,-3.81857 0.7449,0 5.08099,-0.56456 5.9435,2.97958 0.25097,1.00366 -1.05069,4.79087 11.45574,15.05477 8.02135,6.57078 20.13576,18.19118 32.31285,12.38098 a 24.181722,24.181722 0 0 0 9.47981,-7.48034 c 0.9174,-1.19183 1.1448,-1.4349 2.02299,-0.61944 0.87818,0.81547 5.85723,4.4145 8.02921,6.06112 2.17195,1.64661 5.96702,3.92051 10.35016,2.67379 4.38311,-1.24673 5.33973,-3.20699 5.99053,-4.07734 0.65079,-0.87035 7.84104,-11.85563 7.84104,-11.85563 0,0 0.35284,-0.7841 1.77989,0.18818 1.56823,1.09774 6.07682,4.38313 8.94662,6.47668 3.46573,2.5405 11.07152,9.05639 16.06627,9.91106 6.39826,1.09775 13.05529,-2.59538 18.03434,-11.36949 1.60741,-2.83845 10.88337,-18.03436 20.71599,-34.33585 v -0.125452 c 1.56823,7.582282 4.51646,15.407622 9.45629,19.767232 8.62513,7.63716 16.18389,12.70246 23.35056,18.10492 23.39764,17.65015 47.83026,5.30838 53.53854,1.56821 7.05692,-4.70462 12.0046,-13.26701 14.00407,-19.41438 l 0.38419,-1.20751 1.99164,-5.88862 c 1.63093,-4.74382 3.30891,-9.66014 4.64972,-14.756808 2.35232,-8.813316 0.65866,-12.718144 -4.51643,-17.085595 -4.76733,-4.014606 -6.21792,-4.900641 -8.08411,-6.531575 -1.15263,-1.011493 2.28176,-0.486144 7.20592,-1.481954 a 25.726404,25.726404 0 0 0 9.69936,-4.022445 c 13.50223,-9.362184 12.54561,-26.212547 6.45315,-34.131984"
     fill="#000e17"
     style="d:path('M 452.76 76.62 C 451.08 76.62 442.56 76.47 440.67 76.47 S 438.54 75.94 438.83 74.73 S 440.76 71.73 442.02 70.53 S 444.5 70.46 445.4 71.15 A 70.77 70.77 0 0 0 452.54 75.05 C 454.68 76.05 454.44 76.58 452.76 76.62 M 504.76 40.85 C 500.76 35.67 488.93 26.01 474.51 16.29 C 463.58 8.92001 447.41 5.82001 430.56 7.51001 A 73.83 73.83 0 0 0 392.63 22.4 L 392.49 22.5 C 385.55 16.8 369.49 3.30001 358.7 0.800011 C 344.09 -2.60999 333 5.62001 329.51 11.51 A 30.28 30.28 0 0 0 325.09 29.69 C 315.71 22.8 310.09 17.83 302.79 15.69 C 298.88 14.52 289.29 13.47 279.26 25.76 C 279.26 25.76 273.12 21.87 264.82 15.28 C 261.09 12.3 254.48 8.00001 251.2 6.53001 A 19.54 19.54 0 0 0 237.2 5.91001 A 36.33 36.33 0 0 0 215.32 24.45 C 205.88 17.78 196.98 7.19001 183.69 5.45001 C 169 3.52001 159.45 15.89 152.46 24.93 C 137.17 45.32 108.17 83.84 95.35 100.38 C 92.11 104.54 89.92 107.32 89.23 108.05 L 88.46 108.86 C 87.7 109.67 86.46 110.11 83.27 105.33 A 70.557 70.557 0 0 0 79.96 100.81 C 62.85 79.44 43.82 83 33.3 85.05 C 25.09 86.58 15.64 93.65 9.06 102.88 C 8.06 104.27 7.14 105.73 6.28 107.22 C -0.55 119.16 -1.86 132.51 2.59 144.84 C 7.59 158.75 16.65 167.76 27.59 175.37 C 35.99 181.19 57.85 199.09 82.03 193.32 C 111.39 186.32 131.74 162.88 140.63 146.76 C 142.46 143.45 144.57 141.65 151.29 141.89 C 152.24 141.89 157.77 141.17 158.87 145.69 C 159.19 146.97 157.53 151.8 173.48 164.89 C 183.71 173.27 199.16 188.09 214.69 180.68 A 30.84 30.84 0 0 0 226.78 171.14 C 227.95 169.62 228.24 169.31 229.36 170.35 S 236.83 175.98 239.6 178.08 S 247.21 183.08 252.8 181.49 S 259.61 177.4 260.44 176.29 S 270.44 161.17 270.44 161.17 S 270.89 160.17 272.71 161.41 C 274.71 162.81 280.46 167 284.12 169.67 C 288.54 172.91 298.24 181.22 304.61 182.31 C 312.77 183.71 321.26 179 327.61 167.81 C 329.66 164.19 341.49 144.81 354.03 124.02 V 123.86 C 356.03 133.53 359.79 143.51 366.09 149.07 C 377.09 158.81 386.73 165.27 395.87 172.16 C 425.71 194.67 456.87 178.93 464.15 174.16 C 473.15 168.16 479.46 157.24 482.01 149.4 L 482.5 147.86 L 485.04 140.35 C 487.12 134.3 489.26 128.03 490.97 121.53 C 493.97 110.29 491.81 105.31 485.21 99.74 C 479.13 94.62 477.28 93.49 474.9 91.41 C 473.43 90.12 477.81 90.79 484.09 89.52 A 32.81 32.81 0 0 0 496.46 84.39 C 513.68 72.45 512.46 50.96 504.69 40.86');text-align:center;fill:#000e17;stroke-width:0.784104"
     id="path253" />
  <path
     d="m 280.30289,4.9086844 c -9.64444,-2.164123 -16.46614,3.5206203 -18.15982,6.3669116 -5.14372,8.625128 -1.92105,16.027057 -1.83478,16.191718 2.35229,5.12803 0.97226,6.500209 -1.09775,9.973785 -2.07003,3.473574 -11.35382,18.559706 -13.07099,21.170767 -1.71719,2.611063 -3.41085,5.26133 -3.36379,-2.124918 0.047,-7.386244 -0.1726,-24.769799 -0.18815,-30.627044 0,-9.338661 -11.76153,-16.2309222 -22.57431,0.352846 0,0 -18.55184,28.564856 -20.26904,31.160234 -1.71719,2.595381 -2.90901,4.916324 -3.1364,-1.944574 -0.22749,-6.860898 0,-13.870774 -0.11771,-18.457774 -0.1177,-4.586998 1.70933,-6.81385 3.1364,-9.142635 1.42708,-2.328784 5.62202,-8.052733 1.1291,-14.043276 C 196.26276,7.7941818 190.71131,7.6844074 187.4024,8.7978329 A 24.260133,24.260133 0 0 0 172.75537,21.170971 c -4.59486,8.789789 -3.92052,24.307179 -3.92052,24.307179 -0.0863,5.97486 -0.14118,54.228529 -0.10185,59.87407 0.0549,8.62513 0.96446,16.27797 7.8959,18.11277 6.93147,1.8348 10.39721,-1.5682 13.32976,-5.97486 2.93256,-4.40666 20.99827,-32.430485 22.73898,-35.025863 2.50128,-3.787217 2.22684,-3.646079 2.07787,1.215359 -0.13325,4.336086 0.10978,22.158744 0.28238,28.266904 0.0863,3.08152 -0.13326,11.40085 8.335,12.67109 7.16671,1.06638 12.54562,-3.83426 15.94863,-9.79344 2.16414,-3.78721 17.95597,-29.968401 30.33695,-50.566775 7.05692,-11.761539 13.0004,-21.64907 14.6627,-24.565931 0,0 7.17454,-10.820616 7.44115,-16.771955 0.24303,-5.692584 -1.38003,-15.7526192 -11.46361,-18.0343578 M 293.01335,40.37364 c -5.82589,9.589577 -12.78871,28.227694 -11.88701,42.28665 0.90173,14.058959 2.68165,22.84875 9.51118,30.13307 6.82954,7.28431 17.30514,11.40085 30.20363,11.21266 12.89849,-0.18817 20.67678,-1.2624 26.85551,-5.33974 6.17874,-4.07733 7.22943,-8.35069 9.40924,-15.04692 2.17979,-6.696245 4.70461,-13.368957 6.56293,-20.386675 1.85832,-7.017715 1.52899,-12.106542 -1.62309,-15.415455 -3.15211,-3.308914 -5.48872,-3.246185 -11.11857,-3.081522 -5.62988,0.164667 -7.48036,-0.133288 -10.01299,0.101941 -2.53266,0.235229 -6.93931,0.541032 -9.23674,4.163586 -2.29743,3.622553 -3.1364,7.347041 -1.80343,9.911056 1.65444,3.222662 2.43072,3.418688 3.82642,4.704615 1.3957,1.285928 2.04649,3.089365 -0.0784,6.382595 -2.12493,3.29323 -4.64975,3.693122 -10.25609,3.497096 -5.6063,-0.196014 -11.11856,-2.736518 -12.82005,-8.625126 -1.70153,-5.888611 1.5682,-16.19172 3.01095,-19.971093 1.44275,-3.779374 8.14683,-18.238225 11.76153,-22.738975 3.92052,-4.845752 7.14319,-7.464656 13.16509,-8.695694 4.06949,-0.784104 3.99892,2.438557 4.70461,5.143713 1.25457,4.579157 4.3596,10.04435 8.26445,12.54564 5.15155,3.30107 13.54928,5.410307 20.79438,0.376369 9.40925,-6.555098 8.62513,-21.17077 4.15575,-27.608251 -3.92052,-5.645539 -14.52941,-16.9130915 -38.25636,-13.698272 -21.74317,2.948226 -31.86593,14.309872 -34.3437,16.764113 A 74.293717,74.293717 0 0 0 292.96633,40.35797 M 128.46162,70.349891 c 0,0.84683 -0.14912,0.964447 -1.12909,0.98797 -0.98013,0.02348 -12.05952,0 -12.69464,0.05489 -0.63513,0.05489 -0.31363,-0.501827 -0.0863,-0.933082 1.18398,-2.266057 11.09503,-15.360569 11.09503,-15.360569 2.19549,-3.199139 2.94823,-3.857783 2.79926,2.979589 -0.12533,5.849406 0.0628,10.373678 0,12.271206 m 29.16078,35.143475 c -1.77992,-3.00311 -2.84629,-4.70461 -3.05017,-11.761537 -0.204,-7.056924 0.36852,-59.450656 0.10185,-68.953978 -0.26652,-9.503322 -2.65027,-15.0312447 -11.16562,-16.1525114 -8.51535,-1.1212667 -14.5608,5.9670194 -20.46509,13.6120194 0,0 -46.262029,61.724551 -49.908109,65.558813 -3.64607,3.834263 -5.27703,6.523732 -11.49495,-2.681629 -12.6711,-18.818463 -26.89472,-15.572279 -34.70439,-14.113848 -10.38934,1.952417 -28.2276903,20.26121 -20.7473303,41.086981 7.5979403,21.06883 26.3380003,26.36936 44.4507603,22.73897 18.9988,-3.84994 36.25689,-23.34273 41.99654,-34.60245 5.48872,-10.812773 16.042729,-9.134794 21.813729,-9.095588 7.44112,0 14.11385,-1.803437 14.0668,9.409238 -0.0784,12.22415 0.83898,11.27539 2.99528,16.08978 2.0465,4.52427 12.28688,9.62878 19.80642,6.57078 13.47089,-5.48872 8.11545,-14.65488 6.33553,-17.66583"
     fill="#e20613"
     style="d:path('M 357.48 6.26 C 345.18 3.5 336.48 10.75 334.32 14.38 C 327.76 25.38 331.87 34.82 331.98 35.03 C 334.98 41.57 333.22 43.32 330.58 47.75 S 316.1 71.42 313.91 74.75 S 309.56 81.46 309.62 72.04 S 309.4 40.45 309.38 32.98 C 309.38 21.07 294.38 12.28 280.59 33.43 C 280.59 33.43 256.93 69.86 254.74 73.17 S 251.03 79.44 250.74 70.69 S 250.74 53 250.59 47.15 S 252.77 38.46 254.59 35.49 S 261.76 25.22 256.03 17.58 S 243.22 9.8 239 11.22 A 30.94 30.94 0 0 0 220.32 27 C 214.46 38.21 215.32 58 215.32 58 C 215.21 65.62 215.14 127.16 215.19 134.36 C 215.26 145.36 216.42 155.12 225.26 157.46 S 238.52 155.46 242.26 149.84 S 269.04 108.48 271.26 105.17 C 274.45 100.34 274.1 100.52 273.91 106.72 C 273.74 112.25 274.05 134.98 274.27 142.77 C 274.38 146.7 274.1 157.31 284.9 158.93 C 294.04 160.29 300.9 154.04 305.24 146.44 C 308 141.61 328.14 108.22 343.93 81.95 C 352.93 66.95 360.51 54.34 362.63 50.62 C 362.63 50.62 371.78 36.82 372.12 29.23 C 372.43 21.97 370.36 9.14002 357.5 6.23002 M 373.69 51.49 C 366.26 63.72 357.38 87.49 358.53 105.42 S 361.95 134.56 370.66 143.85 S 392.73 158.39 409.18 158.15 S 435.55 156.54 443.43 151.34 S 452.65 140.69 455.43 132.15 S 461.43 115.1 463.8 106.15 S 465.75 90.71 461.73 86.49 S 454.73 82.35 447.55 82.56 S 438.01 82.39 434.78 82.69 S 425.93 83.38 423 88 S 419 97.37 420.7 100.64 C 422.81 104.75 423.8 105 425.58 106.64 S 428.19 110.58 425.48 114.78 S 419.55 119.49 412.4 119.24 S 398.22 115.75 396.05 108.24 S 398.05 87.59 399.89 82.77 S 410.28 59.51 414.89 53.77 C 419.89 47.59 424 44.25 431.68 42.68 C 436.87 41.68 436.78 45.79 437.68 49.24 C 439.28 55.08 443.24 62.05 448.22 65.24 C 454.79 69.45 465.5 72.14 474.74 65.72 C 486.74 57.36 485.74 38.72 480.04 30.51 C 475.04 23.31 461.51 8.94 431.25 13.04 C 403.52 16.8 390.61 31.29 387.45 34.42 A 94.75 94.75 0 0 0 373.63 51.47 M 163.83 89.72 C 163.83 90.8 163.64 90.95 162.39 90.98 S 147.01 90.98 146.2 91.05 S 145.8 90.41 146.09 89.86 C 147.6 86.97 160.24 70.27 160.24 70.27 C 163.04 66.19 164 65.35 163.81 74.07 C 163.65 81.53 163.89 87.3 163.81 89.72 M 201 134.54 C 198.73 130.71 197.37 128.54 197.11 119.54 S 197.58 43.72 197.24 31.6 S 193.86 12.43 183 11 S 164.43 18.61 156.9 28.36 C 156.9 28.36 97.9 107.08 93.25 111.97 S 86.52 120.29 78.59 108.55 C 62.43 84.55 44.29 88.69 34.33 90.55 C 21.08 93.04 -1.67 116.39 7.87 142.95 C 17.56 169.82 41.46 176.58 64.56 171.95 C 88.79 167.04 110.8 142.18 118.12 127.82 C 125.12 114.03 138.58 116.17 145.94 116.22 C 155.43 116.22 163.94 113.92 163.88 128.22 C 163.78 143.81 164.95 142.6 167.7 148.74 C 170.31 154.51 183.37 161.02 192.96 157.12 C 210.14 150.12 203.31 138.43 201.04 134.59');text-align:center;fill:#e20613;stroke-width:0.784104"
     id="path255" />
</svg>
